<svg width="24" height="24" viewBox="0 0 24 24" xmlns="http://www.w3.org/2000/svg">
<path d="M12.8099 11.7499L15.2799 9.27994C15.5699 8.98994 15.5699 8.50994 15.2799 8.21994C14.9899 7.92994 14.5099 7.92994 14.2199 8.21994L11.7499 10.6899L9.27994 8.21994C8.98994 7.92994 8.50994 7.92994 8.21994 8.21994C7.92994 8.50994 7.92994 8.98994 8.21994 9.27994L10.6899 11.7499L8.21994 14.2199C7.92994 14.5099 7.92994 14.9899 8.21994 15.2799C8.36994 15.4299 8.55994 15.4999 8.74994 15.4999C8.93994 15.4999 9.12994 15.4299 9.27994 15.2799L11.7499 12.8099L14.2199 15.2799C14.3699 15.4299 14.5599 15.4999 14.7499 15.4999C14.9399 15.4999 15.1299 15.4299 15.2799 15.2799C15.5699 14.9899 15.5699 14.5099 15.2799 14.2199L12.8099 11.7499Z" />
</svg>