<svg width="24" height="24" viewBox="0 0 24 24" xmlns="http://www.w3.org/2000/svg">
<path d="M16.4678 7.47026C16.7578 7.18035 17.2374 7.18029 17.5273 7.47026L21.5273 11.4703C21.5972 11.5401 21.6476 11.6197 21.6875 11.7095C21.7675 11.8895 21.7674 12.0999 21.6875 12.2798C21.6475 12.3698 21.5973 12.4501 21.5273 12.5201L17.5273 16.5201V16.5298C17.2374 16.8198 16.7578 16.8197 16.4678 16.5298C16.3178 16.3798 16.2471 16.1896 16.2471 15.9996C16.2472 15.8097 16.3179 15.6201 16.4678 15.4703L19.1875 12.7496H4.80762L7.52734 15.4703C7.81734 15.7603 7.81734 16.2398 7.52734 16.5298C7.23733 16.8197 6.75772 16.8198 6.46777 16.5298L2.46777 12.5298C2.39782 12.4599 2.3476 12.3796 2.30762 12.2896C2.26773 12.1997 2.24805 12.0994 2.24805 11.9996C2.2481 11.8997 2.26767 11.7994 2.30762 11.7095C2.34756 11.6197 2.39794 11.5401 2.46777 11.4703L6.46777 7.47026C6.75774 7.18029 7.23733 7.18035 7.52734 7.47026C7.81734 7.76026 7.81734 8.23983 7.52734 8.52983L4.80762 11.2496H19.1875L16.4678 8.52983C16.1778 8.23983 16.1778 7.76026 16.4678 7.47026Z" />
</svg>
