<svg version="1.1" xmlns="http://www.w3.org/2000/svg"  viewBox="0 0 16 16">
	<g>
		<path d="M12.79,4.2L16,1l-1-1l-3.32,3.32C10.57,2.55,9.32,2,8,2C3.63,2,0,7.97,0,7.97s1.27,2.1,3.21,3.82l-3.23,3.23
			L0.96,16l3.35-3.34C5.41,13.44,6.67,14,8,14c4.37,0,8-6,8-6S14.73,5.91,12.79,4.2z M2,7.97c1.07-1.47,3.61-4,6-4
			c0.8,0,1.6,0.27,2.35,0.68L9.57,5.43C9.11,5.14,8.58,4.97,8,4.97c-1.66,0-3,1.34-3,3c0,0.58,0.17,1.11,0.46,1.57l-0.97,0.97
			C3.36,9.64,2.45,8.59,2,7.97z M8,11.97c-0.8,0-1.59-0.27-2.33-0.67l0.78-0.77C6.9,10.8,7.43,10.97,8,10.97c1.66,0,3-1.34,3-3
			c0-0.57-0.17-1.09-0.44-1.55l0.98-0.98c1.11,0.87,2.01,1.91,2.46,2.52C12.93,9.44,10.39,11.97,8,11.97z"/>
	</g>
</svg>