<?xml version="1.0" encoding="utf-8"?>
<!-- Generator: Adobe Illustrator 24.0.2, SVG Export Plug-In . SVG Version: 6.00 Build 0)  -->
<svg version="1.1" id="Layer_1" xmlns="http://www.w3.org/2000/svg" xmlns:xlink="http://www.w3.org/1999/xlink" x="0px" y="0px"
	 viewBox="0 0 16 16" style="enable-background:new 0 0 16 16;" xml:space="preserve">
<g>
	<circle cx="6" cy="5" r="3"/>
	<path d="M10,5c0,0.34-0.06,0.67-0.14,0.99C9.91,5.99,9.95,6,10,6c1.66,0,3-1.34,3-3s-1.34-3-3-3
		C8.97,0,8.07,0.52,7.53,1.3C8.98,1.91,10,3.33,10,5z"/>
	<path d="M6,9c-3.31,0-6,2.73-6,4.67S3.27,16,6,16s6-0.4,6-2.33S9.31,9,6,9z"/>
	<path d="M10,7C9.81,7,9.62,7.01,9.43,7.03C9.09,7.6,8.62,8.07,8.06,8.42c3,0.83,5.23,3.31,5.42,5.28
		c1.44-0.31,2.52-0.92,2.52-2.03C16,9.74,13.31,7,10,7z"/>
</g>
</svg>
