<svg width="24" height="24" viewBox="0 0 24 24" xmlns="http://www.w3.org/2000/svg">
<path fill-rule="evenodd" clip-rule="evenodd" d="M20.8999 17.25C21.4246 17.25 21.8501 17.6755 21.8501 18.2002V20.7998C21.8501 21.3245 21.4246 21.75 20.8999 21.75H8.30029C7.77562 21.75 7.3501 21.3245 7.3501 20.7998V18.2002C7.3501 17.6755 7.77562 17.25 8.30029 17.25H20.8999ZM8.8501 18.75V20.25H20.3501V18.75H8.8501Z" />
<path fill-rule="evenodd" clip-rule="evenodd" d="M5.8999 2.25C6.42457 2.25 6.8501 2.67552 6.8501 3.2002V15.7998C6.8501 16.3245 6.42457 16.75 5.8999 16.75H3.30029C2.77562 16.75 2.3501 16.3245 2.3501 15.7998V3.2002C2.3501 2.70843 2.72375 2.30368 3.20264 2.25488L3.30029 2.25H5.8999ZM3.8501 15.25H5.3501V3.75H3.8501V15.25Z" />
<path d="M11.1011 4.25C13.5283 4.25011 15.472 4.76427 16.6616 6.44141C17.5761 7.73122 17.9475 9.59006 17.9292 12.0908L19.0396 10.9648C19.3304 10.6703 19.8053 10.6674 20.1001 10.958C20.395 11.2489 20.3978 11.7237 20.1069 12.0186L17.6343 14.5264C17.6284 14.5323 17.6208 14.5363 17.6147 14.542C17.5947 14.561 17.5733 14.578 17.5513 14.5947C17.5337 14.6081 17.5162 14.6211 17.4976 14.6328C17.4758 14.6465 17.4533 14.6585 17.4302 14.6699C17.4093 14.6802 17.3884 14.6899 17.3667 14.6982C17.3422 14.7076 17.3171 14.7149 17.2915 14.7217C17.2711 14.7271 17.2509 14.7326 17.23 14.7363C17.1897 14.7434 17.1489 14.7487 17.1069 14.749L17.104 14.75C17.1014 14.75 17.0988 14.749 17.0962 14.749C17.08 14.7489 17.0637 14.7492 17.0474 14.748C17.0173 14.7459 16.9874 14.7419 16.9585 14.7363C16.9562 14.7359 16.954 14.7348 16.9517 14.7344C16.9144 14.7269 16.8791 14.7149 16.8442 14.7021C16.828 14.6962 16.8122 14.6897 16.7964 14.6826C16.7679 14.6699 16.7408 14.6556 16.7144 14.6396C16.6986 14.6301 16.6826 14.6211 16.6675 14.6104C16.6434 14.5932 16.621 14.5744 16.5991 14.5547C16.5901 14.5466 16.5794 14.5398 16.5708 14.5312L14.0679 12.0391C13.7747 11.7468 13.7729 11.2719 14.0649 10.9785C14.3572 10.685 14.8329 10.6843 15.1265 10.9766L16.4263 12.2695C16.4639 9.79326 16.1085 8.25411 15.438 7.30859C14.6774 6.23635 13.3707 5.75003 11.1001 5.75C10.6862 5.74979 10.3503 5.41395 10.3501 5C10.3503 4.58596 10.687 4.25 11.1011 4.25Z" />
</svg>
