<svg width="24" height="24" viewBox="0 0 24 24" xmlns="http://www.w3.org/2000/svg">
<path fill-rule="evenodd" clip-rule="evenodd" d="M15.7998 17.25C16.3245 17.25 16.75 17.6755 16.75 18.2002V20.7998C16.75 21.3245 16.3245 21.75 15.7998 21.75H3.2002C2.67553 21.75 2.25 21.3245 2.25 20.7998V18.2002C2.25 17.6755 2.67552 17.25 3.2002 17.25H15.7998ZM3.75 20.25H15.25V18.75H3.75V20.25Z" />
<path fill-rule="evenodd" clip-rule="evenodd" d="M20.8975 2.25488C21.3763 2.30368 21.75 2.70843 21.75 3.2002V15.7998C21.75 16.3245 21.3245 16.75 20.7998 16.75H18.2002C17.6755 16.75 17.25 16.3245 17.25 15.7998V3.2002C17.25 2.67552 17.6755 2.25 18.2002 2.25H20.7998L20.8975 2.25488ZM18.75 15.25H20.25V3.75H18.75V15.25Z" />
<path d="M10.5645 4.39355C10.8553 4.09865 11.3301 4.09585 11.625 4.38672L14.1328 6.85938C14.1386 6.86506 14.1429 6.87208 14.1484 6.87793C14.1675 6.89794 14.1844 6.91943 14.2012 6.94141C14.2148 6.95936 14.2283 6.97707 14.2402 6.99609C14.2529 7.01624 14.2637 7.03725 14.2744 7.05859C14.2861 7.082 14.2974 7.10538 14.3066 7.12988C14.3142 7.14993 14.3193 7.17062 14.3252 7.19141C14.3324 7.21693 14.3393 7.2423 14.3438 7.26855C14.3502 7.30662 14.3551 7.34515 14.3555 7.38477L14.3564 7.38965C14.3565 7.39193 14.3555 7.3942 14.3555 7.39648C14.3554 7.41299 14.3557 7.42958 14.3545 7.44629C14.3496 7.51411 14.3329 7.57836 14.3115 7.63965C14.3041 7.66085 14.2964 7.6817 14.2871 7.70215C14.2759 7.72691 14.2628 7.75024 14.249 7.77344C14.2382 7.79174 14.2273 7.80977 14.2148 7.82715C14.198 7.85065 14.1795 7.87222 14.1602 7.89355C14.1521 7.90246 14.1462 7.91332 14.1377 7.92188L11.6465 10.4248C11.3542 10.7183 10.8785 10.72 10.585 10.4277C10.2919 10.1355 10.2911 9.66061 10.583 9.36719L11.876 8.06641C9.39971 8.02875 7.86055 8.38514 6.91504 9.05566C5.84282 9.81626 5.35647 11.1229 5.35645 13.3936C5.3562 13.8075 5.02038 14.1434 4.60645 14.1436C4.1924 14.1434 3.85645 13.8067 3.85645 13.3926C3.85654 10.9653 4.3707 9.02164 6.04785 7.83203C7.33783 6.9174 9.19697 6.54607 11.6982 6.56445L10.5723 5.4541C10.2777 5.16333 10.274 4.68841 10.5645 4.39355Z" />
</svg>
