<svg xmlns="http://www.w3.org/2000/svg" width="24" height="24" viewBox="0 0 24 24" >
  <path d="M12 2.5C12.4142 2.5 12.75 2.83579 12.75 3.25V11.25H20.75L20.8271 11.2539C21.2051 11.2925 21.5 11.6118 21.5 12C21.5 12.3882 21.2051 12.7075 20.8271 12.7461L20.75 12.75H12.75V20.75L12.7461 20.8271C12.7075 21.2051 12.3882 21.5 12 21.5C11.6118 21.5 11.2925 21.2051 11.2539 20.8271L11.25 20.75V12.75H3.25C2.83579 12.75 2.5 12.4142 2.5 12C2.5 11.5858 2.83579 11.25 3.25 11.25H11.25V3.25C11.25 2.83579 11.5858 2.5 12 2.5Z" />
</svg>