<svg width="24" height="24" viewBox="0 0 24 24" xmlns="http://www.w3.org/2000/svg">
<path d="M21.7818 16.5701L14.3518 4.41009C13.8518 3.59009 12.9718 3.09009 12.0018 3.09009C11.0318 3.09009 10.1618 3.58009 9.65175 4.41009L2.22175 16.5701C1.69175 17.4301 1.67175 18.4701 2.17175 19.3501C2.66175 20.2301 3.56175 20.7501 4.57175 20.7501H19.4418C20.4518 20.7501 21.3518 20.2201 21.8418 19.3501C22.3318 18.4701 22.3118 17.4301 21.7918 16.5701H21.7818ZM20.5218 18.6201C20.3018 19.0201 19.8918 19.2601 19.4318 19.2601H4.57175C4.11175 19.2601 3.70175 19.0201 3.48175 18.6201C3.26175 18.2201 3.27175 17.7501 3.50175 17.3601L10.9318 5.19009C11.1618 4.81009 11.5518 4.59009 12.0018 4.59009C12.4518 4.59009 12.8318 4.81009 13.0718 5.19009L20.5018 17.3501C20.7418 17.7401 20.7518 18.2101 20.5218 18.6101V18.6201ZM11.2518 12.0001V9.00009C11.2518 8.59009 11.5918 8.25009 12.0018 8.25009C12.4118 8.25009 12.7518 8.59009 12.7518 9.00009V12.0001C12.7518 12.4101 12.4118 12.7501 12.0018 12.7501C11.5918 12.7501 11.2518 12.4101 11.2518 12.0001ZM13.0018 16.0001C13.0018 16.5501 12.5518 17.0001 12.0018 17.0001C11.4518 17.0001 11.0018 16.5501 11.0018 16.0001C11.0018 15.4501 11.4518 15.0001 12.0018 15.0001C12.5518 15.0001 13.0018 15.4501 13.0018 16.0001Z" />
</svg>