<svg version="1.1" xmlns="http://www.w3.org/2000/svg">
	<symbol id="sa-svg-sorting" viewBox="0 0 16 16">
		<g>
			<polygon class="st0" points="8,3 10,5 11,4 8,1 5,4 6,5 	"/>
			<polygon class="st0" points="8,13 6,11 5,12 8,15 11,12 10,11"/>
		</g>
	</symbol>
	<symbol id="sa-svg-movetodetails" viewBox="0 0 16 16">
		<g>
			<circle class="st0" cx="1.5" cy="14.5" r="1.5"/>
			<circle class="st0" cx="7.5" cy="14.5" r="1.5"/>
			<circle class="st0" cx="13.5" cy="14.5" r="1.5"/>
			<rect x="12" y="1" class="st0" width="3" height="9"/>
			<path class="st0" d="M2.02,7.02L1,6L0,7l3,3l3-3L5,6L4.06,6.94C4.33,4.73,6.21,3,8.5,3C8.67,3,8.83,3.03,9,3.05V1.03
				C8.83,1.01,8.67,1,8.5,1C5.08,1,2.27,3.66,2.02,7.02z"/>
		</g>
	</symbol>
    <symbol id="sa-svg-hide" viewBox="0 0 16 16">
		<g>
			<path class="st1" d="M12.79,4.2L16,1l-1-1l-3.32,3.32C10.57,2.55,9.32,2,8,2C3.63,2,0,7.97,0,7.97s1.27,2.1,3.21,3.82l-3.23,3.23
				L0.96,16l3.35-3.34C5.41,13.44,6.67,14,8,14c4.37,0,8-6,8-6S14.73,5.91,12.79,4.2z M2,7.97c1.07-1.47,3.61-4,6-4
				c0.8,0,1.6,0.27,2.35,0.68L9.57,5.43C9.11,5.14,8.58,4.97,8,4.97c-1.66,0-3,1.34-3,3c0,0.58,0.17,1.11,0.46,1.57l-0.97,0.97
				C3.36,9.64,2.45,8.59,2,7.97z M8,11.97c-0.8,0-1.59-0.27-2.33-0.67l0.78-0.77C6.9,10.8,7.43,10.97,8,10.97c1.66,0,3-1.34,3-3
				c0-0.57-0.17-1.09-0.44-1.55l0.98-0.98c1.11,0.87,2.01,1.91,2.46,2.52C12.93,9.44,10.39,11.97,8,11.97z"/>
        </g>
	</symbol>
    <symbol id="sa-svg-detail"  viewBox="0 0 16 16">
        <g>
            <circle class="st0" cx="1.5" cy="8.5" r="1.5"/>
            <circle class="st0" cx="7.5" cy="8.5" r="1.5"/>
            <circle class="st0" cx="13.5" cy="8.5" r="1.5"/>
        </g>
    </symbol>		
    <symbol id="sa-svg-drag" viewBox="0 0 16 16">
        <g>
            <polygon class="st0" points="13,5 12,6 13,7 9,7 9,3 10,4 11,3 8,0 5,3 6,4 7,3 7,7 3,7 4,6 3,5 0,8 3,11 4,10 3,9 7,9 7,13 6,12 
                5,13 8,16 11,13 10,12 9,13 9,9 13,9 12,10 13,11 16,8 "/>
        </g>
    </symbol>
</svg>
